# Exported from Wings 3D 2.1.5
mtllib ballForFarDistance.mtl
o sphere2
#32 vertices, 60 faces
v 0.50000000 5.3028762e-17 0.86602540
v 0.25000000 -0.43301270 0.86602540
v -0.25000000 -0.43301270 0.86602540
v -0.50000000 -8.2035780e-18 0.86602540
v -0.25000000 0.43301270 0.86602540
v 0.25000000 0.43301270 0.86602540
v 0.86602540 3.0616170e-17 0.50000000
v 0.43301270 -0.75000000 0.50000000
v -0.43301270 -0.75000000 0.50000000
v -0.86602540 -7.5441354e-17 0.50000000
v -0.43301270 0.75000000 0.50000000
v 0.43301270 0.75000000 0.50000000
v 1.00000000 3.7493995e-33 6.1232340e-17
v 0.50000000 -0.86602540 1.1426110e-16
v -0.50000000 -0.86602540 1.1426110e-16
v -1.00000000 -1.2246468e-16 6.1232340e-17
v -0.50000000 0.86602540 8.2035780e-18
v 0.50000000 0.86602540 8.2035780e-18
v 0.86602540 -3.0616170e-17 -0.50000000
v 0.43301270 -0.75000000 -0.50000000
v -0.43301270 -0.75000000 -0.50000000
v -0.86602540 -1.3667369e-16 -0.50000000
v -0.43301270 0.75000000 -0.50000000
v 0.43301270 0.75000000 -0.50000000
v 0.50000000 -5.3028762e-17 -0.86602540
v 0.25000000 -0.43301270 -0.86602540
v -0.25000000 -0.43301270 -0.86602540
v -0.50000000 -1.1426110e-16 -0.86602540
v -0.25000000 0.43301270 -0.86602540
v 0.25000000 0.43301270 -0.86602540
v 0.0000000e+0 6.1232340e-17 1.00000000
v 0.0000000e+0 -6.1232340e-17 -1.00000000
vn 0.56858759 1.7139704e-16 0.82262273
vn 0.24616098 -0.42636332 0.87041317
vn -0.28429380 -0.49241130 0.82262273
vn -0.49232195 -2.5509745e-16 0.87041317
vn -0.28429380 0.49241130 0.82262273
vn 0.24616098 0.42636332 0.87041317
vn 0.86209342 1.4373377e-16 0.50674938
vn 0.43104671 -0.74659480 0.50674938
vn -0.43104671 -0.74659480 0.50674938
vn -0.86209342 -2.6351191e-16 0.50674938
vn -0.43104671 0.74659480 0.50674938
vn 0.43104671 0.74659480 0.50674938
vn 1.00000000 2.5498240e-16 5.7576672e-17
vn 0.50000000 -0.86602540 6.5801911e-17
vn -0.50000000 -0.86602540 -8.6365008e-17
vn -1.00000000 -2.6320764e-16 9.0477627e-17
vn -0.50000000 0.86602540 1.7273002e-16
vn 0.50000000 0.86602540 8.2252388e-18
vn 0.86209342 1.4373377e-16 -0.50674938
vn 0.43104671 -0.74659480 -0.50674938
vn -0.43104671 -0.74659480 -0.50674938
vn -0.86209342 -2.4754150e-16 -0.50674938
vn -0.43104671 0.74659480 -0.50674938
vn 0.43104671 0.74659480 -0.50674938
vn 0.56858759 3.0246536e-17 -0.82262273
vn 0.24616098 -0.42636332 -0.87041317
vn -0.28429380 -0.49241130 -0.82262273
vn -0.49232195 -1.8006879e-16 -0.87041317
vn -0.28429380 0.49241130 -0.82262273
vn 0.24616098 0.42636332 -0.87041317
vn -5.8107450e-17 -1.4526863e-17 1.00000000
vn 9.6845750e-18 -1.9369150e-17 -1.00000000
g sphere2_default
usemtl default
s 1
f 1//1 8//8 7//7
f 1//1 12//12 6//6
f 1//1 31//31 2//2
f 2//2 8//8 1//1
f 2//2 31//31 3//3
f 3//3 8//8 2//2
f 3//3 10//10 9//9
f 3//3 31//31 4//4
f 4//4 10//10 3//3
f 4//4 31//31 5//5
f 5//5 10//10 4//4
f 5//5 12//12 11//11
f 5//5 31//31 6//6
f 6//6 12//12 5//5
f 6//6 31//31 1//1
f 7//7 12//12 1//1
f 7//7 13//13 12//12
f 8//8 13//13 7//7
f 8//8 15//15 14//14
f 9//9 8//8 3//3
f 9//9 15//15 8//8
f 10//10 15//15 9//9
f 10//10 17//17 16//16
f 11//11 10//10 5//5
f 11//11 17//17 10//10
f 12//12 13//13 18//18
f 12//12 17//17 11//11
f 13//13 20//20 19//19
f 13//13 24//24 18//18
f 14//14 13//13 8//8
f 14//14 20//20 13//13
f 15//15 20//20 14//14
f 15//15 22//22 21//21
f 16//16 15//15 10//10
f 16//16 22//22 15//15
f 17//17 22//22 16//16
f 17//17 24//24 23//23
f 18//18 17//17 12//12
f 18//18 24//24 17//17
f 19//19 24//24 13//13
f 19//19 25//25 24//24
f 20//20 25//25 19//19
f 20//20 27//27 26//26
f 21//21 20//20 15//15
f 21//21 27//27 20//20
f 22//22 27//27 21//21
f 22//22 29//29 28//28
f 23//23 22//22 17//17
f 23//23 29//29 22//22
f 24//24 25//25 30//30
f 24//24 29//29 23//23
f 25//25 32//32 30//30
f 26//26 25//25 20//20
f 26//26 32//32 25//25
f 27//27 32//32 26//26
f 28//28 27//27 22//22
f 28//28 32//32 27//27
f 29//29 32//32 28//28
f 30//30 29//29 24//24
f 30//30 32//32 29//29
