# Exported from Wings 3D 2.1.5
mtllib millhole.mtl
o Tube3
#128 vertices, 256 faces
v 1.00000000 6.1232340e-17 1.00000000
v 0.98078528 -0.19509032 1.00000000
v 0.92387953 -0.38268343 1.00000000
v 0.83146961 -0.55557023 1.00000000
v 0.70710678 -0.70710678 1.00000000
v 0.55557023 -0.83146961 1.00000000
v 0.38268343 -0.92387953 1.00000000
v 0.19509032 -0.98078528 1.00000000
v 6.1232340e-17 -1.00000000 1.00000000
v -0.19509032 -0.98078528 1.00000000
v -0.38268343 -0.92387953 1.00000000
v -0.55557023 -0.83146961 1.00000000
v -0.70710678 -0.70710678 1.00000000
v -0.83146961 -0.55557023 1.00000000
v -0.92387953 -0.38268343 1.00000000
v -0.98078528 -0.19509032 1.00000000
v -1.00000000 -6.1232340e-17 1.00000000
v -0.98078528 0.19509032 1.00000000
v -0.92387953 0.38268343 1.00000000
v -0.83146961 0.55557023 1.00000000
v -0.70710678 0.70710678 1.00000000
v -0.55557023 0.83146961 1.00000000
v -0.38268343 0.92387953 1.00000000
v -0.19509032 0.98078528 1.00000000
v -1.8369702e-16 1.00000000 1.00000000
v 0.19509032 0.98078528 1.00000000
v 0.38268343 0.92387953 1.00000000
v 0.55557023 0.83146961 1.00000000
v 0.70710678 0.70710678 1.00000000
v 0.83146961 0.55557023 1.00000000
v 0.92387953 0.38268343 1.00000000
v 0.98078528 0.19509032 1.00000000
v 1.00000000 0.0000000e+0 0.0000000e+0
v 0.98078528 -0.19509032 1.1945837e-17
v 0.92387953 -0.38268343 2.3432602e-17
v 0.83146961 -0.55557023 3.4018865e-17
v 0.70710678 -0.70710678 4.3297803e-17
v 0.55557023 -0.83146961 5.0912830e-17
v 0.38268343 -0.92387953 5.6571306e-17
v 0.19509032 -0.98078528 6.0055778e-17
v 6.1232340e-17 -1.00000000 6.1232340e-17
v -0.19509032 -0.98078528 6.0055778e-17
v -0.38268343 -0.92387953 5.6571306e-17
v -0.55557023 -0.83146961 5.0912830e-17
v -0.70710678 -0.70710678 4.3297803e-17
v -0.83146961 -0.55557023 3.4018865e-17
v -0.92387953 -0.38268343 2.3432602e-17
v -0.98078528 -0.19509032 1.1945837e-17
v -1.00000000 -1.2246468e-16 7.4987989e-33
v -0.98078528 0.19509032 -1.1945837e-17
v -0.92387953 0.38268343 -2.3432602e-17
v -0.83146961 0.55557023 -3.4018865e-17
v -0.70710678 0.70710678 -4.3297803e-17
v -0.55557023 0.83146961 -5.0912830e-17
v -0.38268343 0.92387953 -5.6571306e-17
v -0.19509032 0.98078528 -6.0055778e-17
v -1.8369702e-16 1.00000000 -6.1232340e-17
v 0.19509032 0.98078528 -6.0055778e-17
v 0.38268343 0.92387953 -5.6571306e-17
v 0.55557023 0.83146961 -5.0912830e-17
v 0.70710678 0.70710678 -4.3297803e-17
v 0.83146961 0.55557023 -3.4018865e-17
v 0.92387953 0.38268343 -2.3432602e-17
v 0.98078528 0.19509032 -1.1945837e-17
v 0.85000000 6.1232340e-17 1.00000000
v 0.83366749 -0.16582677 1.00000000
v 0.78529760 -0.32528092 1.00000000
v 0.70674917 -0.47223470 1.00000000
v 0.60104076 -0.60104076 1.00000000
v 0.47223470 -0.70674917 1.00000000
v 0.32528092 -0.78529760 1.00000000
v 0.16582677 -0.83366749 1.00000000
v 5.2047489e-17 -0.85000000 1.00000000
v -0.16582677 -0.83366749 1.00000000
v -0.32528092 -0.78529760 1.00000000
v -0.47223470 -0.70674917 1.00000000
v -0.60104076 -0.60104076 1.00000000
v -0.70674917 -0.47223470 1.00000000
v -0.78529760 -0.32528092 1.00000000
v -0.83366749 -0.16582677 1.00000000
v -0.85000000 -4.2862638e-17 1.00000000
v -0.83366749 0.16582677 1.00000000
v -0.78529760 0.32528092 1.00000000
v -0.70674917 0.47223470 1.00000000
v -0.60104076 0.60104076 1.00000000
v -0.47223470 0.70674917 1.00000000
v -0.32528092 0.78529760 1.00000000
v -0.16582677 0.83366749 1.00000000
v -1.5614247e-16 0.85000000 1.00000000
v 0.16582677 0.83366749 1.00000000
v 0.32528092 0.78529760 1.00000000
v 0.47223470 0.70674917 1.00000000
v 0.60104076 0.60104076 1.00000000
v 0.70674917 0.47223470 1.00000000
v 0.78529760 0.32528092 1.00000000
v 0.83366749 0.16582677 1.00000000
v 0.85000000 0.0000000e+0 0.0000000e+0
v 0.83366749 -0.16582677 1.0153961e-17
v 0.78529760 -0.32528092 1.9917712e-17
v 0.70674917 -0.47223470 2.8916036e-17
v 0.60104076 -0.60104076 3.6803132e-17
v 0.47223470 -0.70674917 4.3275905e-17
v 0.32528092 -0.78529760 4.8085610e-17
v 0.16582677 -0.83366749 5.1047411e-17
v 5.2047489e-17 -0.85000000 5.2047489e-17
v -0.16582677 -0.83366749 5.1047411e-17
v -0.32528092 -0.78529760 4.8085610e-17
v -0.47223470 -0.70674917 4.3275905e-17
v -0.60104076 -0.60104076 3.6803132e-17
v -0.70674917 -0.47223470 2.8916036e-17
v -0.78529760 -0.32528092 1.9917712e-17
v -0.83366749 -0.16582677 1.0153961e-17
v -0.85000000 -1.0409498e-16 6.3739791e-33
v -0.83366749 0.16582677 -1.0153961e-17
v -0.78529760 0.32528092 -1.9917712e-17
v -0.70674917 0.47223470 -2.8916036e-17
v -0.60104076 0.60104076 -3.6803132e-17
v -0.47223470 0.70674917 -4.3275905e-17
v -0.32528092 0.78529760 -4.8085610e-17
v -0.16582677 0.83366749 -5.1047411e-17
v -1.5614247e-16 0.85000000 -5.2047489e-17
v 0.16582677 0.83366749 -5.1047411e-17
v 0.32528092 0.78529760 -4.8085610e-17
v 0.47223470 0.70674917 -4.3275905e-17
v 0.60104076 0.60104076 -3.6803132e-17
v 0.70674917 0.47223470 -2.8916036e-17
v 0.78529760 0.32528092 -1.9917712e-17
v 0.83366749 0.16582677 -1.0153961e-17
vn 0.70539816 1.1312242e-16 0.70881128
vn 0.69184413 -0.13761635 0.70881128
vn 0.65170292 -0.26994419 0.70881128
vn 0.58651714 -0.39189822 0.70881128
vn 0.49879182 -0.49879182 0.70881128
vn 0.39189822 -0.58651714 0.70881128
vn 0.26994419 -0.65170292 0.70881128
vn 0.13761635 -0.69184413 0.70881128
vn -4.9183663e-18 -0.70539816 0.70881128
vn -0.13761635 -0.69184413 0.70881128
vn -0.26994419 -0.65170292 0.70881128
vn -0.39189822 -0.58651714 0.70881128
vn -0.49879182 -0.49879182 0.70881128
vn -0.58651714 -0.39189822 0.70881128
vn -0.65170292 -0.26994419 0.70881128
vn -0.69184413 -0.13761635 0.70881128
vn -0.70539816 4.9183663e-18 0.70881128
vn -0.69184413 0.13761635 0.70881128
vn -0.65170292 0.26994419 0.70881128
vn -0.58651714 0.39189822 0.70881128
vn -0.49879182 0.49879182 0.70881128
vn -0.39189822 0.58651714 0.70881128
vn -0.26994419 0.65170292 0.70881128
vn -0.13761635 0.69184413 0.70881128
vn -1.9673465e-16 0.70539816 0.70881128
vn 0.13761635 0.69184413 0.70881128
vn 0.26994419 0.65170292 0.70881128
vn 0.39189822 0.58651714 0.70881128
vn 0.49879182 0.49879182 0.70881128
vn 0.58651714 0.39189822 0.70881128
vn 0.65170292 0.26994419 0.70881128
vn 0.69184413 0.13761635 0.70881128
vn 0.70539816 -1.2701440e-16 -0.70881128
vn 0.69184413 -0.13761635 -0.70881128
vn 0.65170292 -0.26994419 -0.70881128
vn 0.58651714 -0.39189822 -0.70881128
vn 0.49879182 -0.49879182 -0.70881128
vn 0.39189822 -0.58651714 -0.70881128
vn 0.26994419 -0.65170292 -0.70881128
vn 0.13761635 -0.69184413 -0.70881128
vn -4.9183663e-18 -0.70539816 -0.70881128
vn -0.13761635 -0.69184413 -0.70881128
vn -0.26994419 -0.65170292 -0.70881128
vn -0.39189822 -0.58651714 -0.70881128
vn -0.49879182 -0.49879182 -0.70881128
vn -0.58651714 -0.39189822 -0.70881128
vn -0.65170292 -0.26994419 -0.70881128
vn -0.69184413 -0.13761635 -0.70881128
vn -0.70539816 -3.8483807e-17 -0.70881128
vn -0.69184413 0.13761635 -0.70881128
vn -0.65170292 0.26994419 -0.70881128
vn -0.58651714 0.39189822 -0.70881128
vn -0.49879182 0.49879182 -0.70881128
vn -0.39189822 0.58651714 -0.70881128
vn -0.26994419 0.65170292 -0.70881128
vn -0.13761635 0.69184413 -0.70881128
vn -1.8689792e-16 0.70539816 -0.70881128
vn 0.13761635 0.69184413 -0.70881128
vn 0.26994419 0.65170292 -0.70881128
vn 0.39189822 0.58651714 -0.70881128
vn 0.49879182 0.49879182 -0.70881128
vn 0.58651714 0.39189822 -0.70881128
vn 0.65170292 0.26994419 -0.70881128
vn 0.69184413 0.13761635 -0.70881128
vn -0.70539816 -3.8363257e-16 0.70881128
vn -0.69184413 0.13761635 0.70881128
vn -0.65170292 0.26994419 0.70881128
vn -0.58651714 0.39189822 0.70881128
vn -0.49879182 0.49879182 0.70881128
vn -0.39189822 0.58651714 0.70881128
vn -0.26994419 0.65170292 0.70881128
vn -0.13761635 0.69184413 0.70881128
vn 0.0000000e+0 0.70539816 0.70881128
vn 0.13761635 0.69184413 0.70881128
vn 0.26994419 0.65170292 0.70881128
vn 0.39189822 0.58651714 0.70881128
vn 0.49879182 0.49879182 0.70881128
vn 0.58651714 0.39189822 0.70881128
vn 0.65170292 0.26994419 0.70881128
vn 0.69184413 0.13761635 0.70881128
vn 0.70539816 0.0000000e+0 0.70881128
vn 0.69184413 -0.13761635 0.70881128
vn 0.65170292 -0.26994419 0.70881128
vn 0.58651714 -0.39189822 0.70881128
vn 0.49879182 -0.49879182 0.70881128
vn 0.39189822 -0.58651714 0.70881128
vn 0.26994419 -0.65170292 0.70881128
vn 0.13761635 -0.69184413 0.70881128
vn 2.3116322e-16 -0.70539816 0.70881128
vn -0.13761635 -0.69184413 0.70881128
vn -0.26994419 -0.65170292 0.70881128
vn -0.39189822 -0.58651714 0.70881128
vn -0.49879182 -0.49879182 0.70881128
vn -0.58651714 -0.39189822 0.70881128
vn -0.65170292 -0.26994419 0.70881128
vn -0.69184413 -0.13761635 0.70881128
vn -0.70539816 -1.9283010e-16 -0.70881128
vn -0.69184413 0.13761635 -0.70881128
vn -0.65170292 0.26994419 -0.70881128
vn -0.58651714 0.39189822 -0.70881128
vn -0.49879182 0.49879182 -0.70881128
vn -0.39189822 0.58651714 -0.70881128
vn -0.26994419 0.65170292 -0.70881128
vn -0.13761635 0.69184413 -0.70881128
vn 0.0000000e+0 0.70539816 -0.70881128
vn 0.13761635 0.69184413 -0.70881128
vn 0.26994419 0.65170292 -0.70881128
vn 0.39189822 0.58651714 -0.70881128
vn 0.49879182 0.49879182 -0.70881128
vn 0.58651714 0.39189822 -0.70881128
vn 0.65170292 0.26994419 -0.70881128
vn 0.69184413 0.13761635 -0.70881128
vn 0.70539816 -4.3833735e-17 -0.70881128
vn 0.69184413 -0.13761635 -0.70881128
vn 0.65170292 -0.26994419 -0.70881128
vn 0.58651714 -0.39189822 -0.70881128
vn 0.49879182 -0.49879182 -0.70881128
vn 0.39189822 -0.58651714 -0.70881128
vn 0.26994419 -0.65170292 -0.70881128
vn 0.13761635 -0.69184413 -0.70881128
vn 2.3608158e-16 -0.70539816 -0.70881128
vn -0.13761635 -0.69184413 -0.70881128
vn -0.26994419 -0.65170292 -0.70881128
vn -0.39189822 -0.58651714 -0.70881128
vn -0.49879182 -0.49879182 -0.70881128
vn -0.58651714 -0.39189822 -0.70881128
vn -0.65170292 -0.26994419 -0.70881128
vn -0.69184413 -0.13761635 -0.70881128
g Tube3_default
usemtl default
s 1
f 1//1 34//34 33//33
f 1//1 64//64 32//32
f 1//1 66//66 2//2
f 1//1 96//96 65//65
f 2//2 34//34 1//1
f 2//2 66//66 3//3
f 3//3 34//34 2//2
f 3//3 36//36 35//35
f 3//3 66//66 67//67
f 3//3 68//68 4//4
f 4//4 36//36 3//3
f 4//4 68//68 5//5
f 5//5 36//36 4//4
f 5//5 38//38 37//37
f 5//5 68//68 69//69
f 5//5 70//70 6//6
f 6//6 38//38 5//5
f 6//6 70//70 7//7
f 7//7 38//38 6//6
f 7//7 40//40 39//39
f 7//7 70//70 71//71
f 7//7 72//72 8//8
f 8//8 40//40 7//7
f 8//8 72//72 9//9
f 9//9 40//40 8//8
f 9//9 42//42 41//41
f 9//9 72//72 73//73
f 9//9 74//74 10//10
f 10//10 42//42 9//9
f 10//10 74//74 11//11
f 11//11 42//42 10//10
f 11//11 44//44 43//43
f 11//11 74//74 75//75
f 11//11 76//76 12//12
f 12//12 44//44 11//11
f 12//12 76//76 13//13
f 13//13 44//44 12//12
f 13//13 46//46 45//45
f 13//13 76//76 77//77
f 13//13 78//78 14//14
f 14//14 46//46 13//13
f 14//14 78//78 15//15
f 15//15 46//46 14//14
f 15//15 48//48 47//47
f 15//15 78//78 79//79
f 15//15 80//80 16//16
f 16//16 48//48 15//15
f 16//16 80//80 17//17
f 17//17 48//48 16//16
f 17//17 50//50 49//49
f 17//17 80//80 81//81
f 17//17 82//82 18//18
f 18//18 50//50 17//17
f 18//18 82//82 19//19
f 19//19 50//50 18//18
f 19//19 52//52 51//51
f 19//19 82//82 83//83
f 19//19 84//84 20//20
f 20//20 52//52 19//19
f 20//20 84//84 21//21
f 21//21 52//52 20//20
f 21//21 54//54 53//53
f 21//21 84//84 85//85
f 21//21 86//86 22//22
f 22//22 54//54 21//21
f 22//22 86//86 23//23
f 23//23 54//54 22//22
f 23//23 56//56 55//55
f 23//23 86//86 87//87
f 23//23 88//88 24//24
f 24//24 56//56 23//23
f 24//24 88//88 25//25
f 25//25 56//56 24//24
f 25//25 58//58 57//57
f 25//25 88//88 89//89
f 25//25 90//90 26//26
f 26//26 58//58 25//25
f 26//26 90//90 27//27
f 27//27 58//58 26//26
f 27//27 60//60 59//59
f 27//27 90//90 91//91
f 27//27 92//92 28//28
f 28//28 60//60 27//27
f 28//28 92//92 29//29
f 29//29 60//60 28//28
f 29//29 62//62 61//61
f 29//29 92//92 93//93
f 29//29 94//94 30//30
f 30//30 62//62 29//29
f 30//30 94//94 31//31
f 31//31 62//62 30//30
f 31//31 64//64 63//63
f 31//31 94//94 95//95
f 31//31 96//96 32//32
f 32//32 64//64 31//31
f 32//32 96//96 1//1
f 33//33 64//64 1//1
f 33//33 97//97 64//64
f 34//34 97//97 33//33
f 34//34 99//99 98//98
f 35//35 34//34 3//3
f 35//35 99//99 34//34
f 36//36 99//99 35//35
f 36//36 101//101 100//100
f 37//37 36//36 5//5
f 37//37 101//101 36//36
f 38//38 101//101 37//37
f 38//38 103//103 102//102
f 39//39 38//38 7//7
f 39//39 103//103 38//38
f 40//40 103//103 39//39
f 40//40 105//105 104//104
f 41//41 40//40 9//9
f 41//41 105//105 40//40
f 42//42 105//105 41//41
f 42//42 107//107 106//106
f 43//43 42//42 11//11
f 43//43 107//107 42//42
f 44//44 107//107 43//43
f 44//44 109//109 108//108
f 45//45 44//44 13//13
f 45//45 109//109 44//44
f 46//46 109//109 45//45
f 46//46 111//111 110//110
f 47//47 46//46 15//15
f 47//47 111//111 46//46
f 48//48 111//111 47//47
f 48//48 113//113 112//112
f 49//49 48//48 17//17
f 49//49 113//113 48//48
f 50//50 113//113 49//49
f 50//50 115//115 114//114
f 51//51 50//50 19//19
f 51//51 115//115 50//50
f 52//52 115//115 51//51
f 52//52 117//117 116//116
f 53//53 52//52 21//21
f 53//53 117//117 52//52
f 54//54 117//117 53//53
f 54//54 119//119 118//118
f 55//55 54//54 23//23
f 55//55 119//119 54//54
f 56//56 119//119 55//55
f 56//56 121//121 120//120
f 57//57 56//56 25//25
f 57//57 121//121 56//56
f 58//58 121//121 57//57
f 58//58 123//123 122//122
f 59//59 58//58 27//27
f 59//59 123//123 58//58
f 60//60 123//123 59//59
f 60//60 125//125 124//124
f 61//61 60//60 29//29
f 61//61 125//125 60//60
f 62//62 125//125 61//61
f 62//62 127//127 126//126
f 63//63 62//62 31//31
f 63//63 127//127 62//62
f 64//64 97//97 128//128
f 64//64 127//127 63//63
f 65//65 66//66 1//1
f 65//65 97//97 66//66
f 66//66 97//97 98//98
f 66//66 99//99 67//67
f 67//67 68//68 3//3
f 67//67 99//99 68//68
f 68//68 99//99 100//100
f 68//68 101//101 69//69
f 69//69 70//70 5//5
f 69//69 101//101 70//70
f 70//70 101//101 102//102
f 70//70 103//103 71//71
f 71//71 72//72 7//7
f 71//71 103//103 72//72
f 72//72 103//103 104//104
f 72//72 105//105 73//73
f 73//73 74//74 9//9
f 73//73 105//105 74//74
f 74//74 105//105 106//106
f 74//74 107//107 75//75
f 75//75 76//76 11//11
f 75//75 107//107 76//76
f 76//76 107//107 108//108
f 76//76 109//109 77//77
f 77//77 78//78 13//13
f 77//77 109//109 78//78
f 78//78 109//109 110//110
f 78//78 111//111 79//79
f 79//79 80//80 15//15
f 79//79 111//111 80//80
f 80//80 111//111 112//112
f 80//80 113//113 81//81
f 81//81 82//82 17//17
f 81//81 113//113 82//82
f 82//82 113//113 114//114
f 82//82 115//115 83//83
f 83//83 84//84 19//19
f 83//83 115//115 84//84
f 84//84 115//115 116//116
f 84//84 117//117 85//85
f 85//85 86//86 21//21
f 85//85 117//117 86//86
f 86//86 117//117 118//118
f 86//86 119//119 87//87
f 87//87 88//88 23//23
f 87//87 119//119 88//88
f 88//88 119//119 120//120
f 88//88 121//121 89//89
f 89//89 90//90 25//25
f 89//89 121//121 90//90
f 90//90 121//121 122//122
f 90//90 123//123 91//91
f 91//91 92//92 27//27
f 91//91 123//123 92//92
f 92//92 123//123 124//124
f 92//92 125//125 93//93
f 93//93 94//94 29//29
f 93//93 125//125 94//94
f 94//94 125//125 126//126
f 94//94 127//127 95//95
f 95//95 96//96 31//31
f 95//95 127//127 96//96
f 96//96 97//97 65//65
f 96//96 127//127 128//128
f 98//98 97//97 34//34
f 98//98 99//99 66//66
f 100//100 99//99 36//36
f 100//100 101//101 68//68
f 102//102 101//101 38//38
f 102//102 103//103 70//70
f 104//104 103//103 40//40
f 104//104 105//105 72//72
f 106//106 105//105 42//42
f 106//106 107//107 74//74
f 108//108 107//107 44//44
f 108//108 109//109 76//76
f 110//110 109//109 46//46
f 110//110 111//111 78//78
f 112//112 111//111 48//48
f 112//112 113//113 80//80
f 114//114 113//113 50//50
f 114//114 115//115 82//82
f 116//116 115//115 52//52
f 116//116 117//117 84//84
f 118//118 117//117 54//54
f 118//118 119//119 86//86
f 120//120 119//119 56//56
f 120//120 121//121 88//88
f 122//122 121//121 58//58
f 122//122 123//123 90//90
f 124//124 123//123 60//60
f 124//124 125//125 92//92
f 126//126 125//125 62//62
f 126//126 127//127 94//94
f 128//128 97//97 96//96
f 128//128 127//127 64//64
