# Exported from Wings 3D 2.1.7
mtllib rectangle(inside).mtl
o Cylinder13
#8 vertices, 12 faces
v 0.48144562 0.47676714 0.50701859
v 0.48144562 -0.47902408 0.50279786
v -0.48672824 -0.47900207 0.49294961
v -0.48672824 0.47678915 0.49717034
v 0.48672824 0.47900207 -0.49294961
v 0.48672824 -0.47678915 -0.49717034
v -0.48144562 -0.47676714 -0.50701859
v -0.48144562 0.47902408 -0.50279786
vn 0.57282341 0.57614751 0.58303291
vn 0.57198408 -0.58043365 0.57959554
vn -0.58184739 -0.57852524 0.57163114
vn -0.58268672 0.57429252 0.57503416
vn 0.58184739 0.57852524 -0.57163114
vn 0.58268672 -0.57429252 -0.57503416
vn -0.57282341 -0.57614751 -0.58303291
vn -0.57198408 0.58043365 -0.57959554
g Cylinder13_default
usemtl default
s 1
f 1//1 4//4 2//2
f 1//1 5//5 4//4
f 2//2 4//4 3//3
f 2//2 5//5 1//1
f 2//2 6//6 5//5
f 2//2 7//7 6//6
f 3//3 7//7 2//2
f 4//4 7//7 3//3
f 4//4 8//8 7//7
f 5//5 8//8 4//4
f 6//6 7//7 5//5
f 7//7 8//8 5//5
