# Exported from Wings 3D 2.1.7
mtllib rectangle(side).mtl
o Tube12
#16 vertices, 32 faces
v 0.50692388 0.50191896 0.50738883
v 0.50692388 -0.50417706 0.50294595
v -0.51220650 -0.50415389 0.49257937
v -0.51220650 0.50194212 0.49702225
v 0.51220650 0.50415389 -0.49257937
v 0.51220650 -0.50194212 -0.49702225
v -0.50692388 -0.50191896 -0.50738883
v -0.50692388 0.50417706 -0.50294595
v 0.48144562 0.47676714 0.50701859
v 0.48144562 -0.47902408 0.50279786
v -0.48672824 -0.47900207 0.49294961
v -0.48672824 0.47678915 0.49717034
v 0.48672824 0.47900207 -0.49294961
v 0.48672824 -0.47678915 -0.49717034
v -0.48144562 -0.47676714 -0.50701859
v -0.48144562 0.47902408 -0.50279786
vn 0.40088423 0.40559002 0.82145515
vn 0.40029839 -0.41223371 0.81842811
vn -0.41557018 -0.41087685 0.81146882
vn -0.41617123 0.40428582 0.81446577
vn 0.41557022 0.41087685 -0.81146880
vn 0.41617127 -0.40428580 -0.81446575
vn -0.40088419 -0.40559002 -0.82145517
vn -0.40029836 0.41223372 -0.81842812
vn -0.41557022 -0.41087684 0.81146880
vn -0.41617127 0.40428580 0.81446575
vn 0.40088419 0.40559003 0.82145517
vn 0.40029835 -0.41223373 0.81842812
vn -0.40088423 -0.40559003 -0.82145515
vn -0.40029840 0.41223371 -0.81842810
vn 0.41557018 0.41087685 -0.81146882
vn 0.41617123 -0.40428582 -0.81446577
g Tube12_default
usemtl default
s 1
f 1//1 6//6 5//5
f 1//1 8//8 4//4
f 1//1 10//10 2//2
f 1//1 12//12 9//9
f 2//2 6//6 1//1
f 2//2 10//10 3//3
f 3//3 6//6 2//2
f 3//3 7//7 6//6
f 3//3 8//8 7//7
f 3//3 12//12 4//4
f 4//4 8//8 3//3
f 4//4 12//12 1//1
f 5//5 8//8 1//1
f 5//5 13//13 8//8
f 6//6 13//13 5//5
f 6//6 14//14 13//13
f 6//6 15//15 14//14
f 7//7 15//15 6//6
f 8//8 15//15 7//7
f 8//8 16//16 15//15
f 9//9 10//10 1//1
f 9//9 13//13 10//10
f 10//10 11//11 3//3
f 10//10 15//15 11//11
f 11//11 12//12 3//3
f 11//11 15//15 12//12
f 12//12 13//13 9//9
f 12//12 16//16 13//13
f 13//13 14//14 10//10
f 13//13 16//16 8//8
f 14//14 15//15 10//10
f 15//15 16//16 12//12
