# Exported from Wings 3D 2.1.7
mtllib skip.mtl
o Cube4
#8 vertices, 12 faces
v 3.26085894 -1.50000000 -1.50755681
v 3.26085894 -1.50000000 1.49244319
v 3.26085894 1.50000000 -1.50755681
v 3.26085894 1.50000000 1.49244319
v 3.76085894 -1.50000000 -1.50755681
v 3.76085894 -1.50000000 1.49244319
v 3.76085894 1.50000000 -1.50755681
v 3.76085894 1.50000000 1.49244319
vn -0.57735027 -0.57735027 -0.57735027
vn -0.57735027 -0.57735027 0.57735027
vn -0.57735027 0.57735027 -0.57735027
vn -0.57735027 0.57735027 0.57735027
vn 0.57735027 -0.57735027 -0.57735027
vn 0.57735027 -0.57735027 0.57735027
vn 0.57735027 0.57735027 -0.57735027
vn 0.57735027 0.57735027 0.57735027
g Cube4_default
usemtl default
s 1
f 1//1 5//5 2//2
f 2//2 3//3 1//1
f 2//2 5//5 6//6
f 2//2 8//8 4//4
f 3//3 5//5 1//1
f 3//3 8//8 7//7
f 4//4 3//3 2//2
f 4//4 8//8 3//3
f 5//5 8//8 6//6
f 6//6 8//8 2//2
f 7//7 5//5 3//3
f 7//7 8//8 5//5
o Cube3
#8 vertices, 12 faces
v 0.23878228 -1.48120643 1.50703291
v 3.23878228 -1.48120643 1.50703291
v 0.23878228 1.51879357 1.50703291
v 3.23878228 1.51879357 1.50703291
v 0.23878228 -1.48120643 1.00703291
v 3.23878228 -1.48120643 1.00703291
v 0.23878228 1.51879357 1.00703291
v 3.23878228 1.51879357 1.00703291
vn -0.57735027 -0.57735027 0.57735027
vn 0.57735027 -0.57735027 0.57735027
vn -0.57735027 0.57735027 0.57735027
vn 0.57735027 0.57735027 0.57735027
vn -0.57735027 -0.57735027 -0.57735027
vn 0.57735027 -0.57735027 -0.57735027
vn -0.57735027 0.57735027 -0.57735027
vn 0.57735027 0.57735027 -0.57735027
g Cube3_default
usemtl default
s 1
f 9//9 13//13 10//10
f 10//10 11//11 9//9
f 10//10 13//13 14//14
f 10//10 16//16 12//12
f 11//11 13//13 9//9
f 11//11 16//16 15//15
f 12//12 11//11 10//10
f 12//12 16//16 11//11
f 13//13 16//16 14//14
f 14//14 16//16 10//10
f 15//15 13//13 11//11
f 15//15 16//16 13//13
o Cube2
#8 vertices, 12 faces
v 0.25146056 -1.50000000 -1.01269522
v 3.25146056 -1.50000000 -1.01269522
v 0.25146056 1.50000000 -1.01269522
v 3.25146056 1.50000000 -1.01269522
v 0.25146056 -1.50000000 -1.51269522
v 3.25146056 -1.50000000 -1.51269522
v 0.25146056 1.50000000 -1.51269522
v 3.25146056 1.50000000 -1.51269522
vn -0.57735027 -0.57735027 0.57735027
vn 0.57735027 -0.57735027 0.57735027
vn -0.57735027 0.57735027 0.57735027
vn 0.57735027 0.57735027 0.57735027
vn -0.57735027 -0.57735027 -0.57735027
vn 0.57735027 -0.57735027 -0.57735027
vn -0.57735027 0.57735027 -0.57735027
vn 0.57735027 0.57735027 -0.57735027
g Cube2_default
usemtl default
s 1
f 17//17 21//21 18//18
f 18//18 19//19 17//17
f 18//18 21//21 22//22
f 18//18 24//24 20//20
f 19//19 21//21 17//17
f 19//19 24//24 23//23
f 20//20 19//19 18//18
f 20//20 24//24 19//19
f 21//21 24//24 22//22
f 22//22 24//24 18//18
f 23//23 21//21 19//19
f 23//23 24//24 21//21
o Cube1
#8 vertices, 12 faces
v -0.25000000 -1.50000000 -1.50000000
v -0.25000000 -1.50000000 1.50000000
v -0.25000000 1.50000000 -1.50000000
v -0.25000000 1.50000000 1.50000000
v 0.25000000 -1.50000000 -1.50000000
v 0.25000000 -1.50000000 1.50000000
v 0.25000000 1.50000000 -1.50000000
v 0.25000000 1.50000000 1.50000000
vn -0.57735027 -0.57735027 -0.57735027
vn -0.57735027 -0.57735027 0.57735027
vn -0.57735027 0.57735027 -0.57735027
vn -0.57735027 0.57735027 0.57735027
vn 0.57735027 -0.57735027 -0.57735027
vn 0.57735027 -0.57735027 0.57735027
vn 0.57735027 0.57735027 -0.57735027
vn 0.57735027 0.57735027 0.57735027
g Cube1_default
usemtl default
s 1
f 25//25 29//29 26//26
f 26//26 27//27 25//25
f 26//26 29//29 30//30
f 26//26 32//32 28//28
f 27//27 29//29 25//25
f 27//27 32//32 31//31
f 28//28 27//27 26//26
f 28//28 32//32 27//27
f 29//29 32//32 30//30
f 30//30 32//32 26//26
f 31//31 29//29 27//27
f 31//31 32//32 29//29
